<svg id="canvas" height="auto" xmlns="http://www.w3.org/2000/svg" version="1.1" xmlns:xlink="http://www.w3.org/1999/xlink" xmlns:svgjs="http://svgjs.dev/svgjs" viewBox="0 0 2160 1440" width="auto" style="width: auto; height: auto;"><rect width="2160" height="1440" fill="#ffffffff"/><path d="M-1080,-687.3423240576604C-1010.3880395190013,-669.1854147344187,-801.4142368179134,-611.2276033689553,-662.3282371140076,-578.4008681182102C-523.2422374101018,-545.574132867465,-381.0276616577411,-513.7294700220983,-245.48400177656504,-490.3819125531897C-109.94034189538897,-467.03435508428106,16.89935771186302,-463.55736631950566,150.93372217304892,-438.31552330475824C284.96808663423485,-413.0736802900108,426.0817232837145,-373.69053576282926,558.7221849905504,-338.93085446470513C691.3626466973864,-304.171173166581,813.7637688061413,-260.133824934249,946.7764924140644,-229.75743551601363C1079.7892160219874,-199.38104609777824,1225.1871582713936,-182.53483885237026,1356.7985266380886,-156.6725179552928C1488.4098950047835,-130.81019705821532,1602.577790387249,-106.13854244982083,1736.4447026142343,-74.58351013354877C1870.3116148412196,-43.02847781727671,2089.407450435706,14.784144929691486,2160,32.65767594233954L 2160 1440 L -1080 1440 Z" fill="#3fb8af"/><path d="M-1080,-252.59033287759036C-1005.4091494227521,-226.02259190914793,-785.520546712751,-141.12496612476858,-632.4548965365128,-93.18388706693591C-479.3892463602747,-45.242808009103236,-314.36358711674256,-8.675547200894279,-161.60609894257146,35.05614146940572C-8.848610768400363,78.78783013970573,126.08010810401774,121.75967552970789,284.0900325085138,169.20624495486413C442.0999569130098,216.65281438002037,627.2049628257066,278.7054908841096,786.4534474844049,319.73555802034315C945.7019321431032,360.7656251565767,1086.9670492662135,371.8234504638888,1239.580940460704,415.38664777226535C1392.1948316551943,458.9498450806419,1548.7336180614645,532.4442386455787,1702.1367946513471,581.1147418706028C1855.5399712412298,629.7852450956268,2083.6894657752246,686.360512913775,2160,707.4096671224095L 2160 1440 L -1080 1440 Z" fill="#7fc7af"/><path d="M-1080,172.43089125587647C-986.7566172038165,203.55850771723846,-697.5067780601537,290.6027604362863,-520.5397032228993,359.1965900240483C-343.572628385645,427.7904196118103,-192.35032639445086,514.9836384605596,-18.19755097647399,583.9938687824483C155.95522444150288,653.004099104337,339.66647794899313,705.4983353338504,524.3769492849618,773.2579719553803C709.0874206209305,841.0176085769102,910.2180770195836,920.9468544124197,1090.0652770393383,990.5516885116278C1269.912477059093,1060.156522610836,1425.1376955767132,1127.2404427599213,1603.46014940349,1190.8869765506292C1781.782603230267,1254.5335103413372,2067.243358233915,1342.1735721383352,2160,1372.4308912558763L 2160 1440 L -1080 1440 Z" fill="#dad8a7"/></svg>