<svg xmlns="http://www.w3.org/2000/svg" xmlnsXlink="http://www.w3.org/1999/xlink" viewBox="0 0 1422 800" ref={svgRef} aria-labelledby={titleId} {...props}>
<circle r="24" cx="1338" cy="497" stroke-width="2" stroke="hsl(0, 50%, 50%)" fill="none" opacity="0.60"></circle><circle r="21.5" cx="970" cy="753" stroke-width="2" stroke="hsl(0, 50%, 50%)" fill="none" opacity="0.11"></circle><circle r="21.5" cx="963" cy="210" stroke-width="2" stroke="hsl(0, 50%, 50%)" fill="none" opacity="0.87"></circle><circle r="18.5" cx="98" cy="117" fill="hsl(0, 50%, 50%)" opacity="0.93"></circle><circle r="25" cx="1141" cy="58" fill="hsl(0, 50%, 50%)" opacity="0.41"></circle><circle r="14.5" cx="56" cy="687" stroke-width="2" stroke="hsl(0, 50%, 50%)" fill="none" opacity="0.23"></circle><circle r="19" cx="46" cy="248" fill="hsl(0, 50%, 50%)" opacity="0.39"></circle><circle r="31" cx="1168" cy="192" fill="hsl(0, 50%, 50%)" opacity="0.37"></circle><circle r="20" cx="537" cy="196" fill="hsl(0, 50%, 50%)" opacity="0.19"></circle><circle r="14.5" cx="87" cy="759" fill="hsl(0, 50%, 50%)" opacity="0.76"></circle><circle r="25.5" cx="1054" cy="177" stroke-width="2" stroke="hsl(0, 50%, 50%)" fill="none" opacity="0.48"></circle><circle r="38" cx="477" cy="418" fill="hsl(0, 50%, 50%)" opacity="0.68"></circle><circle r="24" cx="212" cy="740" fill="hsl(0, 50%, 50%)" opacity="0.99"></circle><circle r="18" cx="760" cy="54" stroke-width="2" stroke="hsl(0, 50%, 50%)" fill="none" opacity="0.43"></circle><circle r="19.5" cx="396" cy="41" fill="hsl(0, 50%, 50%)" opacity="0.88"></circle><circle r="18.5" cx="712" cy="751" stroke-width="2" stroke="hsl(0, 50%, 50%)" fill="none" opacity="0.60"></circle><circle r="21.5" cx="292" cy="151" stroke-width="2" stroke="hsl(0, 50%, 50%)" fill="none" opacity="0.31"></circle><circle r="25" cx="375" cy="334" fill="hsl(0, 50%, 50%)" opacity="0.89"></circle><circle r="13.5" cx="437" cy="149" fill="hsl(0, 50%, 50%)" opacity="0.56"></circle><circle r="16.5" cx="1287" cy="229" stroke-width="2" stroke="hsl(0, 50%, 50%)" fill="none" opacity="0.24"></circle><circle r="16" cx="903" cy="47" stroke-width="2" stroke="hsl(0, 50%, 50%)" fill="none" opacity="0.61"></circle><circle r="18" cx="853" cy="222" fill="hsl(0, 50%, 50%)" opacity="0.42"></circle><circle r="31.5" cx="991" cy="407" stroke-width="2" stroke="hsl(0, 50%, 50%)" fill="none" opacity="0.38"></circle><circle r="12.5" cx="1383" cy="160" fill="hsl(0, 50%, 50%)" opacity="0.41"></circle><circle r="19" cx="1267" cy="124" fill="hsl(0, 50%, 50%)" opacity="0.47"></circle><circle r="34.5" cx="403" cy="596" fill="hsl(0, 50%, 50%)" opacity="0.53"></circle><circle r="15.5" cx="1327" cy="41" stroke-width="2" stroke="hsl(0, 50%, 50%)" fill="none" opacity="0.25"></circle><circle r="35.5" cx="1188" cy="727" stroke-width="2" stroke="hsl(0, 50%, 50%)" fill="none" opacity="0.37"></circle><circle r="28.5" cx="1167" cy="589" fill="hsl(0, 50%, 50%)" opacity="0.20"></circle><circle r="15" cx="370" cy="136" fill="hsl(0, 50%, 50%)" opacity="0.76"></circle><circle r="25" cx="1216" cy="480" stroke-width="2" stroke="hsl(0, 50%, 50%)" fill="none" opacity="0.63"></circle><circle r="27.5" cx="194" cy="602" stroke-width="2" stroke="hsl(0, 50%, 50%)" fill="none" opacity="0.92"></circle><circle r="24" cx="1008" cy="654" stroke-width="2" stroke="hsl(0, 50%, 50%)" fill="none" opacity="0.44"></circle><circle r="32" cx="99" cy="412" stroke-width="2" stroke="hsl(0, 50%, 50%)" fill="none" opacity="0.22"></circle><circle r="37.5" cx="294" cy="486" fill="hsl(0, 50%, 50%)" opacity="0.45"></circle><circle r="20.5" cx="782" cy="526" stroke-width="2" stroke="hsl(0, 50%, 50%)" fill="none" opacity="0.79"></circle><circle r="12.5" cx="1384" cy="626" fill="hsl(0, 50%, 50%)" opacity="0.61"></circle><circle r="22.5" cx="1149" cy="412" fill="hsl(0, 50%, 50%)" opacity="0.18"></circle><circle r="21" cx="586" cy="54" fill="hsl(0, 50%, 50%)" opacity="0.83"></circle><circle r="27" cx="585" cy="290" stroke-width="2" stroke="hsl(0, 50%, 50%)" fill="none" opacity="0.78"></circle><circle r="16" cx="846" cy="132" stroke-width="2" stroke="hsl(0, 50%, 50%)" fill="none" opacity="0.16"></circle><circle r="17" cx="77" cy="37" fill="hsl(0, 50%, 50%)" opacity="0.56"></circle><circle r="23" cx="165" cy="224" stroke-width="2" stroke="hsl(0, 50%, 50%)" fill="none" opacity="0.42"></circle><circle r="26.5" cx="240" cy="60" stroke-width="2" stroke="hsl(0, 50%, 50%)" fill="none" opacity="0.54"></circle><circle r="20.5" cx="707" cy="609" stroke-width="2" stroke="hsl(0, 50%, 50%)" fill="none" opacity="0.14"></circle><circle r="27" cx="685" cy="165" stroke-width="2" stroke="hsl(0, 50%, 50%)" fill="none" opacity="0.93"></circle><circle r="35.5" cx="642" cy="443" stroke-width="2" stroke="hsl(0, 50%, 50%)" fill="none" opacity="0.85"></circle><circle r="20" cx="393" cy="229" fill="hsl(0, 50%, 50%)" opacity="0.41"></circle><circle r="27.5" cx="1053" cy="535" stroke-width="2" stroke="hsl(0, 50%, 50%)" fill="none" opacity="0.76"></circle><circle r="24" cx="603" cy="639" stroke-width="2" stroke="hsl(0, 50%, 50%)" fill="none" opacity="0.48"></circle><circle r="18.5" cx="1306" cy="313" fill="hsl(0, 50%, 50%)" opacity="0.23"></circle><circle r="22" cx="57" cy="564" fill="hsl(0, 50%, 50%)" opacity="0.27"></circle><circle r="22" cx="472" cy="754" fill="hsl(0, 50%, 50%)" opacity="0.35"></circle><circle r="26" cx="927" cy="550" fill="hsl(0, 50%, 50%)" opacity="0.91"></circle><circle r="23.5" cx="739" cy="294" fill="hsl(0, 50%, 50%)" opacity="0.23"></circle><circle r="29.5" cx="330" cy="732" stroke-width="2" stroke="hsl(0, 50%, 50%)" fill="none" opacity="0.51"></circle><circle r="32" cx="1104" cy="312" fill="hsl(0, 50%, 50%)" opacity="0.38"></circle><circle r="19" cx="1327" cy="704" fill="hsl(0, 50%, 50%)" opacity="0.99"></circle><circle r="18" cx="1367" cy="382" stroke-width="2" stroke="hsl(0, 50%, 50%)" fill="none" opacity="0.47"></circle><circle r="22.5" cx="1005" cy="57" stroke-width="2" stroke="hsl(0, 50%, 50%)" fill="none" opacity="0.55"></circle><circle r="28.5" cx="250" cy="318" fill="hsl(0, 50%, 50%)" opacity="0.51"></circle><circle r="25.5" cx="835" cy="671" stroke-width="2" stroke="hsl(0, 50%, 50%)" fill="none" opacity="0.89"></circle><circle r="22.5" cx="871" cy="327" stroke-width="2" stroke="hsl(0, 50%, 50%)" fill="none" opacity="0.10"></circle><circle r="21.5" cx="846" cy="437" stroke-width="2" stroke="hsl(0, 50%, 50%)" fill="none" opacity="0.93"></circle><circle r="19.5" cx="517" cy="649" fill="hsl(0, 50%, 50%)" opacity="0.35"></circle><circle r="17.5" cx="492" cy="105" stroke-width="2" stroke="hsl(0, 50%, 50%)" fill="none" opacity="0.87"></circle></svg>