<svg xmlns="http://www.w3.org/2000/svg" version="1.1" xmlns:xlink="http://www.w3.org/1999/xlink" xmlns:svgjs="http://svgjs.dev/svgjs" width="1440" height="560" preserveAspectRatio="none" viewBox="0 0 1440 560"><g mask="url(&quot;#SvgjsMask1016&quot;)" fill="none"><rect width="1440" height="560" x="0" y="0" fill="url(&quot;#SvgjsRadialGradient1017&quot;)"></rect><path d="M1440 0L1307.27 0L1440 143.93z" fill="rgba(255, 255, 255, .1)"></path><path d="M1307.27 0L1440 143.93L1440 182.59L1108.57 0z" fill="rgba(255, 255, 255, .075)"></path><path d="M1108.5700000000002 0L1440 182.59L1440 381.71000000000004L590.2800000000002 0z" fill="rgba(255, 255, 255, .05)"></path><path d="M590.2800000000001 0L1440 381.71000000000004L1440 502.44000000000005L215.4500000000001 0z" fill="rgba(255, 255, 255, .025)"></path><path d="M0 560L606.74 560L0 280.59z" fill="rgba(0, 0, 0, .1)"></path><path d="M0 280.59L606.74 560L1016.6600000000001 560L0 191.27999999999997z" fill="rgba(0, 0, 0, .075)"></path><path d="M0 191.27999999999997L1016.6600000000001 560L1234.8100000000002 560L0 162.50999999999996z" fill="rgba(0, 0, 0, .05)"></path><path d="M0 162.51L1234.8100000000002 560L1270.7700000000002 560L0 124.11999999999999z" fill="rgba(0, 0, 0, .025)"></path></g><defs><mask id="SvgjsMask1016"><rect width="1440" height="560" fill="#ffffff"></rect></mask><radialGradient cx="100%" cy="100%" r="1545.06" gradientUnits="userSpaceOnUse" id="SvgjsRadialGradient1017"><stop stop-color="#0e2a47" offset="0"></stop><stop stop-color="rgba(0, 152, 158, 1)" offset="1"></stop></radialGradient></defs></svg>