<?xml version="1.0" standalone="no"?>
<svg xmlns:xlink="http://www.w3.org/1999/xlink" id="wave" style="transform:rotate(0deg); transition: 0.3s" viewBox="0 0 1440 100" version="1.1" xmlns="http://www.w3.org/2000/svg"><defs><linearGradient id="sw-gradient-0" x1="0" x2="0" y1="1" y2="0"><stop stop-color="rgba(231, 206, 243, 1)" offset="0%"/><stop stop-color="rgba(190, 124, 223, 1)" offset="100%"/></linearGradient></defs><path style="transform:translate(0, 0px); opacity:1" fill="url(#sw-gradient-0)" d="M0,10L34.3,16.7C68.6,23,137,37,206,36.7C274.3,37,343,23,411,15C480,7,549,3,617,16.7C685.7,30,754,60,823,66.7C891.4,73,960,57,1029,46.7C1097.1,37,1166,33,1234,38.3C1302.9,43,1371,57,1440,56.7C1508.6,57,1577,43,1646,35C1714.3,27,1783,23,1851,31.7C1920,40,1989,60,2057,65C2125.7,70,2194,60,2263,51.7C2331.4,43,2400,37,2469,33.3C2537.1,30,2606,30,2674,36.7C2742.9,43,2811,57,2880,51.7C2948.6,47,3017,23,3086,16.7C3154.3,10,3223,20,3291,35C3360,50,3429,70,3497,68.3C3565.7,67,3634,43,3703,35C3771.4,27,3840,33,3909,30C3977.1,27,4046,13,4114,11.7C4182.9,10,4251,20,4320,28.3C4388.6,37,4457,43,4526,46.7C4594.3,50,4663,50,4731,43.3C4800,37,4869,23,4903,16.7L4937.1,10L4937.1,100L4902.9,100C4868.6,100,4800,100,4731,100C4662.9,100,4594,100,4526,100C4457.1,100,4389,100,4320,100C4251.4,100,4183,100,4114,100C4045.7,100,3977,100,3909,100C3840,100,3771,100,3703,100C3634.3,100,3566,100,3497,100C3428.6,100,3360,100,3291,100C3222.9,100,3154,100,3086,100C3017.1,100,2949,100,2880,100C2811.4,100,2743,100,2674,100C2605.7,100,2537,100,2469,100C2400,100,2331,100,2263,100C2194.3,100,2126,100,2057,100C1988.6,100,1920,100,1851,100C1782.9,100,1714,100,1646,100C1577.1,100,1509,100,1440,100C1371.4,100,1303,100,1234,100C1165.7,100,1097,100,1029,100C960,100,891,100,823,100C754.3,100,686,100,617,100C548.6,100,480,100,411,100C342.9,100,274,100,206,100C137.1,100,69,100,34,100L0,100Z"/></svg>